<svg width="640" height="405" viewBox="0 0 640 405" fill="none" xmlns="http://www.w3.org/2000/svg">
<g clip-path="url(#clip0)">
<path d="M-115.489 -321L-135.496 234.559L-139.669 260.893C-143.518 285.178 -124.75 307.154 -100.162 307.154H9.73215H215.2H524.546C532.571 307.154 540.411 309.568 547.047 314.083L638.602 376.376C643.844 379.943 649.858 382.212 656.15 382.997L1135.59 442.833C1160.96 446 1182.75 424.879 1180.37 399.423L1117.47 -274.22L-115.489 -321Z" fill="#2A8086"/>
<path opacity="0.3" d="M-115.5 -296L-135.5 259.536L-140.843 334.452C-143.082 365.86 -109.835 387.421 -82.072 372.565L-15.3428 336.859C-9.53743 333.753 -3.05505 332.127 3.52913 332.127H215.064H524.286C532.313 332.127 540.155 334.543 546.792 339.06L638.138 401.232C643.486 404.872 649.637 407.16 656.063 407.901L1137.03 463.354C1162.27 466.264 1183.79 445.214 1181.44 419.917L1117 -273.646L-115.5 -296Z" fill="#2A8086"/>
</g>
<defs>
<clipPath id="clip0">
<rect width="640" height="405" fill="white"/>
</clipPath>
</defs>
</svg>
