<svg width="1200" height="564" viewBox="0 0 1200 564" fill="none" xmlns="http://www.w3.org/2000/svg">
<path d="M1684.17 238.598L1810.9 285.578C1826.59 291.393 1837 306.355 1837 323.084V432.32C1837 454.411 1819.09 472.32 1797 472.32H1615.95C1609.39 472.32 1602.93 473.933 1597.14 477.018L1499.01 529.302C1493.22 532.387 1486.76 534 1480.2 534H1186.07C1177.16 534 1168.51 531.025 1161.48 525.547L1104.04 480.773C1097.02 475.295 1088.36 472.32 1079.45 472.32H865.074C859.665 472.32 854.312 473.417 849.339 475.545L722.619 529.766C717.646 531.894 712.293 532.991 706.883 532.991H531.107C521.414 532.991 512.052 529.472 504.759 523.088L458.079 482.223C450.786 475.839 441.424 472.32 431.732 472.32H64.1929C55.5544 472.32 47.1481 469.523 40.2312 464.349L-95.1792 363.044C-102.096 357.869 -110.502 355.072 -119.141 355.072H-133C-155.091 355.072 -173 337.164 -173 315.072V179.797C-173 175.441 -172.288 171.114 -170.893 166.988L-126.939 36.9629C-121.818 21.8166 -108.171 11.1742 -92.2332 9.89995L31.5928 0H466.567C487.07 0 504.254 15.5031 506.356 35.8983L512.371 94.2504C514.474 114.646 531.657 130.149 552.16 130.149H704.212C711.329 130.149 718.318 128.25 724.456 124.648L871.262 38.5011C877.4 34.899 884.389 33 891.506 33H1239L1557.32 65.8027C1570.29 67.1397 1581.8 74.7181 1588.15 86.1092L1663.14 220.575C1667.78 228.896 1675.24 235.287 1684.17 238.598Z" fill="#2A808D" fill-opacity="0.3"/>
<path d="M1661.2 271.209L1787.78 317.644C1803.53 323.423 1814 338.418 1814 355.197V462.84C1814 484.931 1796.09 502.84 1774 502.84H1592.4C1585.9 502.84 1579.49 504.424 1573.74 507.457L1475.26 559.383C1469.51 562.415 1463.1 564 1456.6 564H1161.64C1152.8 564 1144.2 561.071 1137.2 555.671L1079.52 511.169C1072.52 505.769 1063.93 502.84 1055.08 502.84H840.046C834.687 502.84 829.383 503.916 824.449 506.006L697.326 559.834C692.392 561.923 687.088 563 681.729 563H505.36C495.739 563 486.44 559.532 479.169 553.233L432.274 512.607C425.003 506.307 415.704 502.84 406.083 502.84H37.5273C28.9574 502.84 20.614 500.087 13.7262 494.988L-122.095 394.432C-128.983 389.333 -137.326 386.58 -145.896 386.58H-160C-182.091 386.58 -200 368.672 -200 346.58V246.26C-200 224.168 -182.091 206.26 -160 206.26H-151.9C-139.763 206.26 -128.283 200.749 -120.691 191.28L-7.0094 49.4798C0.582275 40.0104 12.0626 34.5 24.1995 34.5H440.95C461.437 34.5 478.612 49.979 480.735 70.3557L486.708 127.696C488.831 148.073 506.006 163.552 526.493 163.552H719.365C726.334 163.552 733.182 161.731 739.23 158.271L887.77 73.2813C893.818 69.8206 900.666 68 907.635 68H1114L1522.33 77.9362C1536.66 78.2849 1549.71 86.2757 1556.53 98.8821L1639.8 252.699C1644.44 261.27 1652.05 267.852 1661.2 271.209Z" fill="#2A8086"/>
</svg>
