<svg width="1200" height="564" viewBox="0 0 1200 564" fill="none" xmlns="http://www.w3.org/2000/svg">
<path d="M1689.17 238.598L1815.9 285.578C1831.59 291.393 1842 306.355 1842 323.084V432.32C1842 454.411 1824.09 472.32 1802 472.32H1620.95C1614.39 472.32 1607.93 473.933 1602.14 477.018L1504.01 529.302C1498.22 532.387 1491.76 534 1485.2 534H1191.07C1182.16 534 1173.51 531.025 1166.48 525.547L1109.04 480.773C1102.02 475.295 1093.36 472.32 1084.45 472.32H870.074C864.665 472.32 859.312 473.417 854.339 475.545L727.619 529.766C722.646 531.894 717.293 532.991 711.883 532.991H536.107C526.414 532.991 517.052 529.472 509.759 523.088L463.079 482.223C455.786 475.839 446.424 472.32 436.732 472.32H69.1929C60.5544 472.32 52.1481 469.523 45.2312 464.349L-90.1792 363.044C-97.0961 357.869 -105.502 355.072 -114.141 355.072H-128C-150.091 355.072 -168 337.164 -168 315.072V179.797C-168 175.441 -167.288 171.114 -165.893 166.988L-121.939 36.9629C-116.818 21.8166 -103.171 11.1742 -87.2332 9.89995L36.5928 0H471.567C492.07 0 509.254 15.5031 511.356 35.8983L517.371 94.2504C519.474 114.646 536.657 130.149 557.16 130.149H709.212C716.329 130.149 723.318 128.25 729.456 124.648L876.262 38.5011C882.4 34.899 889.389 33 896.506 33H1244L1562.32 65.8027C1575.29 67.1397 1586.8 74.7181 1593.15 86.1092L1668.14 220.575C1672.78 228.896 1680.24 235.287 1689.17 238.598Z" fill="#2A808D" fill-opacity="0.3"/>
<path d="M1666.2 271.209L1792.78 317.644C1808.53 323.423 1819 338.418 1819 355.197V462.84C1819 484.931 1801.09 502.84 1779 502.84H1597.4C1590.9 502.84 1584.49 504.424 1578.74 507.457L1480.26 559.383C1474.51 562.415 1468.1 564 1461.6 564H1166.64C1157.8 564 1149.2 561.071 1142.2 555.671L1084.52 511.169C1077.52 505.769 1068.93 502.84 1060.08 502.84H845.046C839.687 502.84 834.383 503.916 829.449 506.006L702.326 559.834C697.392 561.923 692.088 563 686.729 563H510.36C500.739 563 491.44 559.532 484.169 553.233L437.274 512.607C430.003 506.307 420.704 502.84 411.083 502.84H42.5273C33.9574 502.84 25.614 500.087 18.7262 494.988L-117.095 394.432C-123.983 389.333 -132.326 386.58 -140.896 386.58H-155C-177.091 386.58 -195 368.672 -195 346.58V246.26C-195 224.168 -177.091 206.26 -155 206.26H-146.9C-134.763 206.26 -123.283 200.749 -115.691 191.28L-2.0094 49.4798C5.58228 40.0104 17.0626 34.5 29.1995 34.5H445.95C466.437 34.5 483.612 49.979 485.735 70.3557L491.708 127.696C493.831 148.073 511.006 163.552 531.493 163.552H724.365C731.334 163.552 738.182 161.731 744.23 158.271L892.77 73.2813C898.818 69.8206 905.666 68 912.635 68H1119L1527.33 77.9362C1541.66 78.2849 1554.71 86.2757 1561.53 98.8821L1644.8 252.699C1649.44 261.27 1657.05 267.852 1666.2 271.209Z" fill="#2A8086"/>
</svg>
