<svg width="640" height="402" viewBox="0 0 640 402" fill="none" xmlns="http://www.w3.org/2000/svg">
<mask id="mask0" mask-type="alpha" maskUnits="userSpaceOnUse" x="0" y="0" width="640" height="402">
<rect width="640" height="402" fill="#C4C4C4"/>
</mask>
<g mask="url(#mask0)">
<path d="M31.332 47.3235L-89.322 164.223C-97.4256 172.075 -102 182.876 -102 194.159V317.785C-102 340.806 -83.338 359.468 -60.3174 359.468H12.2867H363.282H674.63H914.243C918.97 359.468 923.663 360.272 928.12 361.845L1062.7 409.36C1067.16 410.934 1071.85 411.738 1076.58 411.738H1270.74C1275.04 411.738 1279.32 411.072 1283.42 409.764L1535.99 329.138C1540.08 327.83 1544.36 327.164 1548.66 327.164H1813.32H1918.32C1932.73 327.164 1946.11 319.723 1953.72 307.487L1990.44 248.424C1994.54 241.818 1996.72 234.196 1996.72 226.418V92.0944C1996.72 69.0737 1978.06 50.4118 1955.04 50.4118H1940.34C1931.41 50.4118 1922.71 47.5436 1915.54 42.2297L1775.05 -61.7796C1767.23 -67.5689 1757.63 -70.4404 1747.92 -69.8965L1558.51 -59.2909C1548.01 -58.7028 1538.11 -54.1646 1530.82 -46.5869L1411.61 77.2017C1403.75 85.3609 1392.91 89.9709 1381.58 89.9709H1290.43C1281.84 89.9709 1273.46 87.3194 1266.44 82.3788L1168.54 13.4998C1161.52 8.5592 1153.14 5.9077 1144.56 5.9077H933.553C925.607 5.9077 917.826 8.17888 911.128 12.4536L780.833 95.609C766.694 104.632 748.525 104.302 734.723 94.7719L659.692 42.9601C652.729 38.1522 644.468 35.5771 636.007 35.5771H391.511H60.3366C49.5098 35.5771 39.1078 39.7897 31.332 47.3235Z" fill="#2A8086"/>
<path d="M31.332 68.5855L-89.322 185.485C-97.4256 193.336 -102 204.138 -102 215.421V339.047C-102 362.068 -83.338 380.73 -60.3174 380.73H12.2867H363.282H674.63H914.243C918.97 380.73 923.663 381.534 928.12 383.107L1062.7 430.622C1067.16 432.196 1071.85 433 1076.58 433H1270.74C1275.04 433 1279.32 432.334 1283.42 431.026L1535.99 350.4C1540.08 349.091 1544.36 348.426 1548.66 348.426H1813.32H1919.94C1934.6 348.426 1948.18 340.723 1955.71 328.14L1990.81 269.462C1994.68 262.995 1996.72 255.6 1996.72 248.064V113.356C1996.72 90.3356 1978.06 71.6737 1955.04 71.6737H1940.34C1931.41 71.6737 1922.71 68.8055 1915.54 63.4917L1775.05 -40.5176C1767.23 -46.307 1757.63 -49.1784 1747.92 -48.6345L1558.51 -38.0289C1548.01 -37.4408 1538.11 -32.9027 1530.82 -25.3249L1411.61 98.4636C1403.75 106.623 1392.91 111.233 1381.58 111.233H1290.43C1281.84 111.233 1273.46 108.581 1266.44 103.641L1168.54 34.7618C1161.52 29.8212 1153.14 27.1697 1144.56 27.1697H936.291C926.653 27.1697 917.312 30.5099 909.859 36.6218L764.078 156.175C756.626 162.286 747.285 165.627 737.647 165.627H550.83C541.83 165.627 533.072 162.714 525.865 157.324L402.612 65.1421C395.405 59.7519 386.647 56.839 377.647 56.839H60.3366C49.5098 56.839 39.1078 61.0517 31.332 68.5855Z" fill="#2A808D" fill-opacity="0.3"/>
<path d="M31.5685 27.3992L-88.1937 135.13C-96.9816 143.035 -102 154.299 -102 166.12V275.733C-102 298.754 -83.338 317.416 -60.3174 317.416H4.08192C9.49978 317.416 14.8657 316.359 19.8794 314.306L217.683 233.297C222.697 231.243 228.062 230.187 233.48 230.187H546.254C555.393 230.187 564.279 233.191 571.543 238.735L663.43 308.867C670.695 314.412 679.58 317.416 688.719 317.416H910.019C917.461 317.416 924.766 319.408 931.178 323.185L1059.65 398.875C1066.06 402.652 1073.36 404.644 1080.8 404.644H1268.95C1274.42 404.644 1279.83 403.569 1284.88 401.479L1399.31 354.144L1537.06 318.729C1540.45 317.857 1543.94 317.416 1547.44 317.416H1750.01C1758.44 317.416 1766.67 314.859 1773.62 310.083L1915.92 212.269C1922.87 207.493 1931.1 204.937 1939.53 204.937H1955.04C1978.06 204.937 1996.72 186.275 1996.72 163.254V72.1618C1996.72 49.1411 1978.06 30.4791 1955.04 30.4791H1939.53C1931.1 30.4791 1922.87 27.9226 1915.92 23.1469L1774.6 -73.9898C1767.05 -79.1845 1757.99 -81.742 1748.83 -81.2659L1557.72 -71.3311C1547.69 -70.8097 1538.19 -66.6838 1530.96 -59.7125L1411.42 55.5322C1403.65 63.022 1393.28 67.207 1382.49 67.207H1289.64C1281.54 67.207 1273.62 64.8492 1266.84 60.4216L1168.14 -4.05434C1161.36 -8.48193 1153.44 -10.8397 1145.34 -10.8397H932.577C925.246 -10.8397 918.044 -8.90615 911.699 -5.23406L770.835 76.2852C756.891 84.3548 739.545 83.6661 726.285 74.5166L653.188 24.0805C646.227 19.2781 637.971 16.7062 629.515 16.7062H391.511H59.4448C49.1511 16.7062 39.2215 20.5151 31.5685 27.3992Z" fill="#2A808D" fill-opacity="0.3"/>
</g>
</svg>
