<svg width="1200" height="657" viewBox="0 0 1200 657" fill="none" xmlns="http://www.w3.org/2000/svg">
<g clip-path="url(#clip0)">
<path d="M-31.4885 -179L-51.4961 409.027L-59.1228 522.186C-60.6795 545.283 -42.3634 564.876 -19.2133 564.876H87.2724C92.2031 564.876 97.0912 563.964 101.69 562.187L292.242 488.553C296.841 486.776 301.729 485.864 306.66 485.864H607.959C616.349 485.864 624.526 488.502 631.334 493.405L722.414 558.997C727.773 562.856 734.004 565.328 740.551 566.193L1219.53 629.465C1244.91 632.818 1266.86 611.797 1264.62 586.295L1201.47 -129.487L-31.4885 -179Z" fill="#2A8086"/>
<path opacity="0.3" d="M-31.5 -153L-51.5 435.214L-59.1249 548.425C-60.6805 571.522 -42.3647 591.113 -19.2153 591.113H87.2087C92.1425 591.113 97.0337 590.2 101.635 588.42L292.102 514.768C296.704 512.989 301.595 512.076 306.529 512.076H607.695C616.089 512.076 624.271 514.717 631.081 519.625L721.942 585.104C727.412 589.046 733.789 591.541 740.481 592.358L1220.99 651.017C1246.23 654.099 1267.91 633.149 1265.68 607.815L1201 -129.331L-31.5 -153Z" fill="#2A8086"/>
</g>
<defs>
<clipPath id="clip0">
<rect width="1332" height="657" fill="white" transform="translate(-62)"/>
</clipPath>
</defs>
</svg>
